<svg version="1.1" id="Layer_1" xmlns="http://www.w3.org/2000/svg" xmlns:xlink="http://www.w3.org/1999/xlink" x="0px" y="0px"
	 width="100%" viewBox="0 0 1024 1024" enable-background="new 0 0 1024 1024" xml:space="preserve">
<path fill="#000000" opacity="1.000000" stroke="none" 
	d="
M244.163849,524.554077 
	C238.949142,451.118195 258.177734,385.411346 304.486115,328.583252 
	C335.761597,290.202972 375.440277,262.864105 422.180695,246.202087 
	C447.898163,237.034286 474.383209,232.041733 501.829102,231.520569 
	C572.368408,230.181122 633.709106,253.296204 686.634277,299.572266 
	C712.190247,321.917542 732.112671,348.536926 747.296936,378.817871 
	C759.423462,403.000824 766.890259,428.656006 771.320496,455.226013 
	C774.854858,476.423645 776.464294,497.847473 778.005310,519.265869 
	C778.352295,524.088074 778.613831,528.939941 780.095459,533.564697 
	C781.623596,538.334595 783.638428,538.768982 787.174866,535.384949 
	C794.469177,528.405029 795.153992,528.508362 798.580444,538.417053 
	C800.047241,542.658997 802.256165,544.744995 807.041016,545.354736 
	C817.066345,546.632446 823.069031,554.107788 829.131775,561.304626 
	C835.216248,568.527466 836.478516,577.636047 838.885864,586.203552 
	C841.036987,593.859375 843.588318,601.499084 844.089661,609.560364 
	C844.641174,618.428528 841.153564,625.431885 834.384399,630.960938 
	C823.276550,640.033813 811.573120,648.105591 799.024963,655.211182 
	C784.120850,663.650879 769.407715,673.155945 759.808594,687.760925 
	C752.694397,698.584961 745.978394,709.573120 742.492676,722.809509 
	C734.525391,753.064026 712.175476,767.430908 683.680847,771.158447 
	C677.410706,771.978638 671.173950,773.089539 664.951050,774.226257 
	C653.897522,776.245300 643.410828,773.931274 633.104797,770.227051 
	C628.385376,768.530640 624.769348,765.146729 621.940491,761.249573 
	C615.258911,752.044922 606.341125,752.036316 597.044250,755.145813 
	C567.706665,764.958130 537.680176,770.003723 506.720001,769.275146 
	C432.881165,767.537354 370.074951,740.450562 318.413208,687.549316 
	C282.912079,651.196411 259.855804,608.237976 249.285828,558.554932 
	C246.928528,547.474670 245.372055,536.275391 244.163849,524.554077 
M555.015686,248.633087 
	C528.288391,243.470154 501.358673,242.696960 474.499054,246.630920 
	C420.934937,254.476135 374.304138,277.531860 335.403778,314.825867 
	C283.562195,364.526642 258.101654,426.346649 256.455719,497.892975 
	C255.742035,528.916321 260.610626,559.223145 271.380157,588.497803 
	C289.131226,636.750183 318.683258,676.244690 359.637451,707.111694 
	C393.836639,732.887451 432.185730,748.874329 474.867249,753.994629 
	C506.370728,757.773987 537.906311,757.726257 568.611023,749.471252 
	C655.677002,726.063110 715.741943,672.302002 746.765564,587.242920 
	C760.211914,550.376038 763.744446,512.184692 759.934448,473.153198 
	C757.306519,446.231781 751.042236,420.207550 740.281677,395.536285 
	C722.986145,355.882019 697.384705,322.383514 662.564514,296.311981 
	C630.612549,272.387970 595.413330,255.692017 555.015686,248.633087 
z"/>
<path fill="#000000" opacity="1.000000" stroke="none" 
	d="
M737.547119,586.454224 
	C724.042297,625.889832 701.162415,658.520325 670.440430,685.858521 
	C645.088501,708.418335 616.458862,725.336792 584.090027,735.658386 
	C550.966064,746.220947 517.148438,749.323608 482.504303,745.569214 
	C429.467773,739.821655 383.521515,718.755249 344.551056,682.648071 
	C302.120056,643.334534 275.975342,595.071411 267.956604,537.601807 
	C262.425018,497.957306 265.538818,458.841522 278.319550,420.744904 
	C298.784943,359.741882 337.415955,313.756836 393.565155,282.521332 
	C424.280243,265.434662 457.168701,255.643646 492.380402,253.536987 
	C545.750793,250.343964 595.290588,262.149170 640.322754,291.168518 
	C677.973328,315.431061 707.249207,347.557129 726.974792,387.870056 
	C739.648865,413.771759 747.204468,441.275696 750.515869,470.012665 
	C754.893494,508.003235 750.709534,545.033386 739.416931,581.406067 
	C738.924561,582.992065 738.258789,584.524231 737.547119,586.454224 
M402.564758,286.115204 
	C387.086029,294.058105 372.810944,303.791931 359.401611,314.858582 
	C326.238647,342.227753 302.288971,376.240662 287.527557,416.463104 
	C270.240173,463.568420 268.387909,511.832458 279.992920,560.461670 
	C292.277191,611.937195 320.687103,653.602905 361.133850,686.903564 
	C420.312927,735.626831 488.624603,749.703552 562.476929,733.870544 
	C621.574585,721.200867 668.538452,687.952454 702.855103,638.240234 
	C740.864990,583.178040 751.808533,521.602966 741.271118,456.267975 
	C732.776733,403.600189 708.584412,358.619751 669.051208,322.571716 
	C620.352905,278.166443 562.923828,257.042816 496.844849,260.111084 
	C463.699127,261.650177 432.594452,270.555176 402.564758,286.115204 
z"/>
<path fill="#000000" opacity="1.000000" stroke="none" 
	d="
M648.772095,462.662659 
	C663.671448,460.472626 678.011658,457.887756 690.862610,450.046387 
	C691.151184,450.343536 691.439697,450.640656 691.728271,450.937805 
	C690.312561,456.157593 688.904602,461.379486 687.479736,466.596771 
	C682.135193,486.165924 679.362976,506.406097 672.250854,525.510254 
	C662.405396,551.956787 647.344910,574.330505 622.660278,589.328186 
	C607.236633,598.699219 590.857300,601.265869 573.231201,597.928650 
	C567.074402,596.762939 560.933899,594.965271 554.488708,595.715942 
	C536.296936,597.835083 526.276611,609.244446 520.526184,625.477844 
	C516.734924,636.180481 517.296509,647.473938 516.390076,658.554321 
	C516.051453,662.694092 515.991211,666.910522 516.366028,671.041077 
	C516.837708,676.238403 514.714111,677.677185 509.774170,677.440308 
	C502.751953,677.103699 502.797028,677.389221 502.695709,670.100220 
	C502.540680,658.949402 503.469604,647.740234 501.650940,636.668274 
	C498.275482,616.118958 488.229156,601.227234 470.312347,596.843872 
	C461.246307,594.625732 451.958466,595.851440 443.018585,597.579285 
	C421.125732,601.810852 402.327728,595.235352 384.904968,582.595703 
	C362.182007,566.110901 349.314728,543.075745 340.747223,517.038513 
	C335.275696,500.410187 332.706055,483.056732 327.659760,466.336151 
	C326.092773,461.144012 324.224731,456.042725 322.285950,450.280029 
	C325.949341,450.710266 327.981720,452.853851 330.369843,454.046661 
	C343.175354,460.442627 357.183075,461.653687 370.980652,463.616974 
	C395.661591,467.128937 419.700470,472.372986 441.738556,484.870758 
	C468.855225,500.248566 485.575623,522.722412 489.984741,553.756836 
	C491.550323,564.776367 489.190033,575.669128 486.871826,586.416992 
	C486.188110,589.586914 486.782410,591.900391 488.928986,594.121033 
	C492.051239,597.350952 495.106201,600.646912 498.148376,603.952820 
	C499.074982,604.959839 499.963898,606.102661 501.485016,605.553101 
	C503.177521,604.941650 503.392090,603.308044 503.365540,601.806641 
	C503.306702,598.480652 502.965485,595.157776 502.956390,591.833008 
	C502.871735,560.837585 502.871368,529.841858 502.732422,498.846710 
	C502.715057,494.974274 503.227509,492.654572 508.043457,492.570587 
	C512.870850,492.486389 513.430542,494.719269 513.419250,498.634552 
	C513.320251,532.962769 513.327209,567.291321 513.366699,601.619751 
	C513.369995,604.513123 512.695496,607.564880 514.144836,610.153625 
	C516.228577,610.656006 516.943665,609.404175 517.635254,608.298340 
	C520.664795,603.454163 524.602417,599.356079 528.564270,595.325806 
	C531.176880,592.668030 531.777222,590.130066 531.051636,586.383606 
	C528.005798,570.656982 525.833923,554.894592 530.233276,538.945557 
	C535.553223,519.659058 547.349976,504.982483 562.277893,492.369537 
	C579.924622,477.459442 600.966919,470.645508 623.225952,466.754913 
	C631.576599,465.295349 639.962646,464.038940 648.772095,462.662659 
M411.292053,511.352386 
	C411.955780,514.590942 412.616760,517.830078 413.284454,521.067871 
	C413.595123,522.574219 414.050140,524.266541 415.830353,524.267639 
	C417.921814,524.268921 417.748840,522.329468 417.816254,520.894897 
	C418.345520,509.631073 415.071320,499.499969 408.397736,490.336121 
	C408.245728,497.212250 410.284149,503.785004 411.292053,511.352386 
M350.223480,484.286560 
	C359.763824,493.997559 364.272827,497.039246 369.191956,496.208344 
	C362.047485,489.977295 355.402649,484.181976 348.498230,478.160309 
	C347.468536,480.917908 348.516479,482.377747 350.223480,484.286560 
M596.961731,505.695496 
	C597.102661,503.796448 598.532166,501.293701 594.528259,501.077667 
	C593.195740,507.610382 588.860229,513.499329 590.918457,520.675049 
	C592.074463,516.253357 598.840149,513.258301 594.102539,507.770508 
	C594.841003,506.406311 596.385315,507.449005 596.961731,505.695496 
z"/>
<path fill="#000000" opacity="1.000000" stroke="none" 
	d="
M573.048584,386.015076 
	C577.427368,393.648041 581.320557,401.053101 584.795044,408.803802 
	C587.475464,414.783051 585.931763,418.557617 583.901611,422.774414 
	C576.228882,438.711853 565.883789,453.112671 556.957275,468.337891 
	C554.287598,472.891296 549.490967,474.191772 544.650085,475.090912 
	C543.838623,475.241577 542.989258,475.194611 542.156860,475.224304 
	C538.502258,475.354584 534.595154,474.708313 531.256409,475.800842 
	C527.050842,477.177032 530.663391,482.273651 528.232605,485.161621 
	C525.789001,484.520050 525.233154,482.200287 524.027710,480.559723 
	C519.094421,473.845551 514.330383,467.017395 510.015717,459.877899 
	C508.736359,457.760956 507.886139,455.723267 508.914581,453.313995 
	C513.182800,443.315002 518.364990,433.836975 525.058350,425.233887 
	C525.561279,424.587402 526.267151,424.076721 527.344116,424.366669 
	C528.541504,425.051392 528.226624,426.313538 528.133301,427.405762 
	C527.581726,433.857361 527.561279,433.891815 534.202026,433.878357 
	C539.200684,433.868225 544.199280,433.762329 549.197144,433.658936 
	C549.647278,433.649628 550.091431,433.345490 550.861816,433.057281 
	C548.914124,427.483612 545.989258,422.506531 543.053101,417.543945 
	C539.830078,412.096527 536.800781,406.505615 533.179810,401.332214 
	C530.552429,397.578339 530.976440,395.357208 534.769836,392.909607 
	C543.171570,387.488617 551.614807,382.158752 560.294250,377.183319 
	C564.174683,374.958923 566.868347,374.665802 568.877380,379.371094 
	C569.844666,381.636444 571.509583,383.603912 573.048584,386.015076 
z"/>
<path fill="#000000" opacity="1.000000" stroke="none" 
	d="
M458.749939,473.661865 
	C454.177429,472.241119 451.238708,469.364716 448.747223,465.929810 
	C438.711182,452.093597 431.680878,436.588501 424.403992,421.266907 
	C421.202637,414.526459 421.583710,407.032410 425.409729,400.552795 
	C428.013916,396.142487 428.595703,392.803009 424.520416,389.313568 
	C424.102539,388.955750 424.027130,388.197998 423.804718,387.654999 
	C425.428497,386.180695 427.169769,386.709167 428.741180,386.762177 
	C437.228241,387.048645 445.710480,387.474426 454.196777,387.787262 
	C457.419708,387.906067 459.827087,389.163727 461.770691,391.830536 
	C467.139191,399.196594 472.017670,406.816956 475.718384,415.000153 
	C474.075378,416.523743 473.080750,415.521484 472.116241,415.057312 
	C465.450897,411.849701 465.494995,411.858276 461.401581,418.264252 
	C458.204224,423.267975 455.537872,428.609283 450.479156,434.662872 
	C464.428589,434.662872 477.023468,434.615417 489.617798,434.677032 
	C500.873932,434.732086 499.284607,433.669128 499.334717,444.668732 
	C499.374176,453.332123 499.269806,461.996094 499.269989,470.659790 
	C499.270050,473.288727 498.703979,475.377625 495.482788,475.275940 
	C483.359283,474.893127 471.156586,476.459900 458.749939,473.661865 
z"/>
<path fill="#000000" opacity="1.000000" stroke="none" 
	d="
M489.196472,377.156799 
	C483.062561,388.507263 483.030518,388.566589 471.843628,382.522858 
	C464.821167,378.728943 457.930969,374.690887 450.944305,370.829620 
	C447.734863,369.055878 447.462402,367.113617 449.524841,364.017975 
	C453.856873,357.515839 457.834167,350.776337 461.921326,344.112335 
	C466.236511,337.076447 472.380768,333.648560 480.506836,331.316010 
	C496.335022,326.772644 512.197876,329.364899 528.019897,328.854980 
	C535.875488,328.601776 541.248901,333.414185 545.098938,340.047302 
	C548.682983,346.222168 548.752319,346.157532 554.657166,342.305267 
	C555.878418,341.508514 556.898499,340.289795 558.530823,340.198944 
	C559.957886,341.178955 559.071167,342.242340 558.637695,343.232941 
	C554.303894,353.135101 549.908813,363.010742 545.635498,372.938843 
	C544.631226,375.272003 543.471497,377.030182 540.600891,376.858124 
	C530.147278,376.231506 519.691528,375.640839 509.238373,375.007629 
	C508.787140,374.980316 508.353241,374.666260 507.990143,374.517975 
	C507.469360,373.469543 507.880188,372.594055 508.634949,372.304626 
	C514.912598,369.897125 513.726562,365.913696 511.543884,361.108276 
	C508.663239,354.766174 506.178894,348.252258 501.763031,342.357452 
	C506.532043,348.467621 502.304779,353.176788 499.733887,358.044220 
	C496.393768,364.368134 492.836395,370.577301 489.196472,377.156799 
z"/>
</svg>